<svg id="SvgjsSvg1006" width="525.0000305175781" height="625" xmlns="http://www.w3.org/2000/svg" version="1.1" xmlns:xlink="http://www.w3.org/1999/xlink" xmlns:svgjs="http://svgjs.com/svgjs"><defs id="SvgjsDefs1007"><marker id="SvgjsMarker1055" markerWidth="16" markerHeight="12" refX="16" refY="6" viewBox="0 0 16 12" orient="auto" markerUnits="userSpaceOnUse"><path id="SvgjsPath1056" d="M0,2 L14,6 L0,11 L0,2" fill="#323232" stroke="#323232" stroke-width="2"></path></marker><marker id="SvgjsMarker1065" markerWidth="16" markerHeight="12" refX="16" refY="6" viewBox="0 0 16 12" orient="auto" markerUnits="userSpaceOnUse"><path id="SvgjsPath1066" d="M0,2 L14,6 L0,11 L0,2" fill="#323232" stroke="#323232" stroke-width="2"></path></marker><marker id="SvgjsMarker1093" markerWidth="16" markerHeight="12" refX="16" refY="6" viewBox="0 0 16 12" orient="auto" markerUnits="userSpaceOnUse"><path id="SvgjsPath1094" d="M0,2 L14,6 L0,11 L0,2" fill="#323232" stroke="#323232" stroke-width="2"></path></marker><marker id="SvgjsMarker1115" markerWidth="16" markerHeight="12" refX="16" refY="6" viewBox="0 0 16 12" orient="auto" markerUnits="userSpaceOnUse"><path id="SvgjsPath1116" d="M0,2 L14,6 L0,11 L0,2" fill="#323232" stroke="#323232" stroke-width="2"></path></marker><marker id="SvgjsMarker1119" markerWidth="16" markerHeight="12" refX="16" refY="6" viewBox="0 0 16 12" orient="auto" markerUnits="userSpaceOnUse"><path id="SvgjsPath1120" d="M0,2 L14,6 L0,11 L0,2" fill="#323232" stroke="#323232" stroke-width="2"></path></marker><marker id="SvgjsMarker1139" markerWidth="16" markerHeight="12" refX="16" refY="6" viewBox="0 0 16 12" orient="auto" markerUnits="userSpaceOnUse"><path id="SvgjsPath1140" d="M0,2 L14,6 L0,11 L0,2" fill="#323232" stroke="#323232" stroke-width="2"></path></marker><marker id="SvgjsMarker1149" markerWidth="16" markerHeight="12" refX="16" refY="6" viewBox="0 0 16 12" orient="auto" markerUnits="userSpaceOnUse"><path id="SvgjsPath1150" d="M0,2 L14,6 L0,11 L0,2" fill="#323232" stroke="#323232" stroke-width="2"></path></marker><marker id="SvgjsMarker1153" markerWidth="16" markerHeight="12" refX="16" refY="6" viewBox="0 0 16 12" orient="auto" markerUnits="userSpaceOnUse"><path id="SvgjsPath1154" d="M0,2 L14,6 L0,11 L0,2" fill="#323232" stroke="#323232" stroke-width="2"></path></marker><marker id="SvgjsMarker1157" markerWidth="16" markerHeight="12" refX="16" refY="6" viewBox="0 0 16 12" orient="auto" markerUnits="userSpaceOnUse"><path id="SvgjsPath1158" d="M0,2 L14,6 L0,11 L0,2" fill="#323232" stroke="#323232" stroke-width="2"></path></marker><marker id="SvgjsMarker1161" markerWidth="16" markerHeight="12" refX="16" refY="6" viewBox="0 0 16 12" orient="auto" markerUnits="userSpaceOnUse"><path id="SvgjsPath1162" d="M0,2 L14,6 L0,11 L0,2" fill="#323232" stroke="#323232" stroke-width="2"></path></marker><marker id="SvgjsMarker1165" markerWidth="16" markerHeight="12" refX="16" refY="6" viewBox="0 0 16 12" orient="auto" markerUnits="userSpaceOnUse"><path id="SvgjsPath1166" d="M0,2 L14,6 L0,11 L0,2" fill="#323232" stroke="#323232" stroke-width="2"></path></marker><marker id="SvgjsMarker1169" markerWidth="16" markerHeight="12" refX="16" refY="6" viewBox="0 0 16 12" orient="auto" markerUnits="userSpaceOnUse"><path id="SvgjsPath1170" d="M0,2 L14,6 L0,11 L0,2" fill="#323232" stroke="#323232" stroke-width="2"></path></marker></defs><rect id="SvgjsRect1008" width="525.0000305175781" height="625" fill="#ffffff"></rect><g id="SvgjsG1009" transform="translate(329.1388390052072,178.22944858768062)"><path id="SvgjsPath1010" d="M 0 35C 0 -11.666666666666666 70 -11.666666666666666 70 35C 70 81.66666666666667 0 81.66666666666667 0 35Z" stroke="#323232" stroke-width="2" fill-opacity="1" fill="#e6ffcc"></path><g id="SvgjsG1011"><text id="SvgjsText1012" font-family="微软雅黑" text-anchor="middle" font-size="13px" width="46" fill="#323232" font-weight="400" align="middle" anchor="middle" family="微软雅黑" size="13px" weight="400" font-style="" y="17.05" transform="rotate(0)"><tspan id="SvgjsTspan1013" dy="16" x="35"><tspan id="SvgjsTspan1014" style="text-decoration:;">ms-ws-</tspan></tspan><tspan id="SvgjsTspan1015" dy="16" x="35"><tspan id="SvgjsTspan1016" style="text-decoration:;">server</tspan></tspan></text></g></g><g id="SvgjsG1017" transform="translate(120.79284715733581,178.22944858768062)"><path id="SvgjsPath1018" d="M 0 35C 0 -11.666666666666666 72.13839673914856 -11.666666666666666 72.13839673914856 35C 72.13839673914856 81.66666666666667 0 81.66666666666667 0 35Z" stroke="#323232" stroke-width="2" fill-opacity="1" fill="#e6ffcc"></path><g id="SvgjsG1019"><text id="SvgjsText1020" font-family="微软雅黑" text-anchor="middle" font-size="13px" width="38" fill="#323232" font-weight="400" align="middle" anchor="middle" family="微软雅黑" size="13px" weight="400" font-style="" y="9.05" transform="rotate(0)"><tspan id="SvgjsTspan1021" dy="16" x="36.5"><tspan id="SvgjsTspan1022" style="text-decoration:;">ms-</tspan></tspan><tspan id="SvgjsTspan1023" dy="16" x="36.5"><tspan id="SvgjsTspan1024" style="text-decoration:;">http-</tspan></tspan><tspan id="SvgjsTspan1025" dy="16" x="36.5"><tspan id="SvgjsTspan1026" style="text-decoration:;">server</tspan></tspan></text></g></g><g id="SvgjsG1027" transform="translate(220.93124389648438,295.53541818489407)"><path id="SvgjsPath1028" d="M 0 35C 0 -11.666666666666666 70 -11.666666666666666 70 35C 70 81.66666666666667 0 81.66666666666667 0 35Z" stroke="#323232" stroke-width="2" fill-opacity="1" fill="#ffffff"></path><g id="SvgjsG1029"><text id="SvgjsText1030" font-family="微软雅黑" text-anchor="middle" font-size="13px" width="32" fill="#323232" font-weight="400" align="middle" anchor="middle" family="微软雅黑" size="13px" weight="400" font-style="" y="25.05" transform="rotate(0)"><tspan id="SvgjsTspan1031" dy="16" x="35"><tspan id="SvgjsTspan1032" style="text-decoration:;">axios</tspan></tspan></text></g></g><g id="SvgjsG1033" transform="translate(220.93124389648438,25)"><path id="SvgjsPath1034" d="M 0 35C 0 -11.666666666666666 70 -11.666666666666666 70 35C 70 81.66666666666667 0 81.66666666666667 0 35Z" stroke="#323232" stroke-width="2" fill-opacity="1" fill="#e6ffcc"></path><g id="SvgjsG1035"><text id="SvgjsText1036" font-family="微软雅黑" text-anchor="middle" font-size="13px" width="18" fill="#323232" font-weight="400" align="middle" anchor="middle" family="微软雅黑" size="13px" weight="400" font-style="" y="25.05" transform="rotate(0)"><tspan id="SvgjsTspan1037" dy="16" x="35"><tspan id="SvgjsTspan1038" style="text-decoration:;">ms</tspan></tspan></text></g></g><g id="SvgjsG1039" transform="translate(25.000442266058656,178.22944858768062)"><path id="SvgjsPath1040" d="M 0 34.77055141231938C 0 -11.59018380410646 68 -11.59018380410646 68 34.77055141231938C 68 81.13128662874522 0 81.13128662874522 0 34.77055141231938Z" stroke="#323232" stroke-width="2" fill-opacity="1" fill="#e6ffcc"></path><g id="SvgjsG1041"><text id="SvgjsText1042" font-family="微软雅黑" text-anchor="middle" font-size="13px" width="28" fill="#323232" font-weight="400" align="middle" anchor="middle" family="微软雅黑" size="13px" weight="400" font-style="" y="16.82055141231938" transform="rotate(0)"><tspan id="SvgjsTspan1043" dy="16" x="34"><tspan id="SvgjsTspan1044" style="text-decoration:;">ms-</tspan></tspan><tspan id="SvgjsTspan1045" dy="16" x="34"><tspan id="SvgjsTspan1046" style="text-decoration:;">core</tspan></tspan></text></g></g><g id="SvgjsG1047" transform="translate(121.8620455269101,295.53541818489396)"><path id="SvgjsPath1048" d="M 0 35C 0 -11.666666666666666 70 -11.666666666666666 70 35C 70 81.66666666666667 0 81.66666666666667 0 35Z" stroke="#323232" stroke-width="2" fill-opacity="1" fill="#ffffff"></path><g id="SvgjsG1049"><text id="SvgjsText1050" font-family="微软雅黑" text-anchor="middle" font-size="13px" width="48" fill="#323232" font-weight="400" align="middle" anchor="middle" family="微软雅黑" size="13px" weight="400" font-style="" y="25.05" transform="rotate(0)"><tspan id="SvgjsTspan1051" dy="16" x="35"><tspan id="SvgjsTspan1052" style="text-decoration:;">express</tspan></tspan></text></g></g><g id="SvgjsG1053"><path id="SvgjsPath1054" d="M156.8620455269101 248.22944858768062C 156.8620455269101 267.1518364265661 156.8620455269101 276.6130303460087 156.8620455269101 295.53541818489396" stroke="#323232" stroke-width="2" fill="none" marker-end="url(#SvgjsMarker1055)"></path></g><g id="SvgjsG1057" transform="translate(329.1388390052072,295.53541818489407)"><path id="SvgjsPath1058" d="M 0 35C 0 -11.666666666666666 70 -11.666666666666666 70 35C 70 81.66666666666667 0 81.66666666666667 0 35Z" stroke="#323232" stroke-width="2" fill-opacity="1" fill="#ffffff"></path><g id="SvgjsG1059"><text id="SvgjsText1060" font-family="微软雅黑" text-anchor="middle" font-size="13px" width="16" fill="#323232" font-weight="400" align="middle" anchor="middle" family="微软雅黑" size="13px" weight="400" font-style="" y="25.05" transform="rotate(0)"><tspan id="SvgjsTspan1061" dy="16" x="35"><tspan id="SvgjsTspan1062" style="text-decoration:;">ws</tspan></tspan></text></g></g><g id="SvgjsG1063"><path id="SvgjsPath1064" d="M364.1388390052072 248.22944858768062C 364.1388390052072 267.151836426566 364.1388390052072 276.6130303460087 364.1388390052072 295.53541818489407" stroke="#323232" stroke-width="2" fill="none" marker-end="url(#SvgjsMarker1065)"></path></g><g id="SvgjsG1067" transform="translate(125.43124389648438,530)"><path id="SvgjsPath1068" d="M 0 35C 0 -11.666666666666666 70 -11.666666666666666 70 35C 70 81.66666666666667 0 81.66666666666667 0 35Z" stroke-dasharray="3,4" stroke="#323232" stroke-width="2" fill-opacity="1" fill="#e6ffcc"></path><g id="SvgjsG1069"><text id="SvgjsText1070" font-family="微软雅黑" text-anchor="middle" font-size="13px" width="49" fill="#323232" font-weight="400" align="middle" anchor="middle" family="微软雅黑" size="13px" weight="400" font-style="" y="17.05" transform="rotate(0)"><tspan id="SvgjsTspan1071" dy="16" x="35"><tspan id="SvgjsTspan1072" style="text-decoration:;">ms-udp</tspan></tspan><tspan id="SvgjsTspan1073" dy="16" x="35"><tspan id="SvgjsTspan1074" style="text-decoration:;">未实现</tspan></tspan></text></g></g><g id="SvgjsG1075" transform="translate(216.43124389648438,530)"><path id="SvgjsPath1076" d="M 0 35C 0 -11.666666666666666 70 -11.666666666666666 70 35C 70 81.66666666666667 0 81.66666666666667 0 35Z" stroke-dasharray="3,4" stroke="#323232" stroke-width="2" fill-opacity="1" fill="#e6ffcc"></path><g id="SvgjsG1077"><text id="SvgjsText1078" font-family="微软雅黑" text-anchor="middle" font-size="13px" width="49" fill="#323232" font-weight="400" align="middle" anchor="middle" family="微软雅黑" size="13px" weight="400" font-style="" y="9.05" transform="rotate(0)"><tspan id="SvgjsTspan1079" dy="16" x="35"><tspan id="SvgjsTspan1080" style="text-decoration:;">ms-</tspan></tspan><tspan id="SvgjsTspan1081" dy="16" x="35"><tspan id="SvgjsTspan1082" style="text-decoration:;">io&lt;/br</tspan></tspan><tspan id="SvgjsTspan1083" dy="16" x="35"><tspan id="SvgjsTspan1084" style="text-decoration:;">&gt;未实现</tspan></tspan></text></g></g><g id="SvgjsG1085" transform="translate(121.8620455269101,414.53541818489384)"><path id="SvgjsPath1086" d="M 0 35C 0 -11.666666666666666 70 -11.666666666666666 70 35C 70 81.66666666666667 0 81.66666666666667 0 35Z" stroke="#323232" stroke-width="2" fill-opacity="1" fill="#ffffff"></path><g id="SvgjsG1087"><text id="SvgjsText1088" font-family="微软雅黑" text-anchor="middle" font-size="13px" width="26" fill="#323232" font-weight="400" align="middle" anchor="middle" family="微软雅黑" size="13px" weight="400" font-style="" y="25.05" transform="rotate(0)"><tspan id="SvgjsTspan1089" dy="16" x="35"><tspan id="SvgjsTspan1090" style="text-decoration:;">http</tspan></tspan></text></g></g><g id="SvgjsG1091"><path id="SvgjsPath1092" d="M156.8620455269101 365.53541818489384L156.8620455269101 390.03541818489384L156.8620455269101 390.03541818489384L156.8620455269101 414.53541818489384" stroke="#323232" stroke-width="2" fill="none" marker-end="url(#SvgjsMarker1093)"></path></g><g id="SvgjsG1095" transform="translate(219.8620455269101,178.22944858768062)"><path id="SvgjsPath1096" d="M 0 35C 0 -11.666666666666666 72.13839673914856 -11.666666666666666 72.13839673914856 35C 72.13839673914856 81.66666666666667 0 81.66666666666667 0 35Z" stroke="#323232" stroke-width="2" fill-opacity="1" fill="#e6ffcc"></path><g id="SvgjsG1097"><text id="SvgjsText1098" font-family="微软雅黑" text-anchor="middle" font-size="13px" width="34" fill="#323232" font-weight="400" align="middle" anchor="middle" family="微软雅黑" size="13px" weight="400" font-style="" y="9.05" transform="rotate(0)"><tspan id="SvgjsTspan1099" dy="16" x="36.5"><tspan id="SvgjsTspan1100" style="text-decoration:;">ms-</tspan></tspan><tspan id="SvgjsTspan1101" dy="16" x="36.5"><tspan id="SvgjsTspan1102" style="text-decoration:;">http-</tspan></tspan><tspan id="SvgjsTspan1103" dy="16" x="36.5"><tspan id="SvgjsTspan1104" style="text-decoration:;">client</tspan></tspan></text></g></g><g id="SvgjsG1105" transform="translate(428.00044226605866,178.22944858768062)"><path id="SvgjsPath1106" d="M 0 35C 0 -11.666666666666666 72.13839673914856 -11.666666666666666 72.13839673914856 35C 72.13839673914856 81.66666666666667 0 81.66666666666667 0 35Z" stroke="#323232" stroke-width="2" fill-opacity="1" fill="#e6ffcc"></path><g id="SvgjsG1107"><text id="SvgjsText1108" font-family="微软雅黑" text-anchor="middle" font-size="13px" width="46" fill="#323232" font-weight="400" align="middle" anchor="middle" family="微软雅黑" size="13px" weight="400" font-style="" y="17.05" transform="rotate(0)"><tspan id="SvgjsTspan1109" dy="16" x="36.5"><tspan id="SvgjsTspan1110" style="text-decoration:;">ms-ws-</tspan></tspan><tspan id="SvgjsTspan1111" dy="16" x="36.5"><tspan id="SvgjsTspan1112" style="text-decoration:;">client</tspan></tspan></text></g></g><g id="SvgjsG1113"><path id="SvgjsPath1114" d="M255.93124389648438 248.22944858768062C 255.93124389648438 267.151836426566 255.93124389648438 276.6130303460087 255.93124389648438 295.53541818489407" stroke="#323232" stroke-width="2" fill="none" marker-end="url(#SvgjsMarker1115)"></path></g><g id="SvgjsG1117"><path id="SvgjsPath1118" d="M464.06964063563294 248.22944858768062C 464.06964063563294 292.4543644140009 364.1388390052072 251.31050235857379 364.1388390052072 295.53541818489407" stroke="#323232" stroke-width="2" fill="none" marker-end="url(#SvgjsMarker1119)"></path></g><g id="SvgjsG1121" transform="translate(308.4312438964844,530)"><path id="SvgjsPath1122" d="M 0 35C 0 -11.666666666666666 70 -11.666666666666666 70 35C 70 81.66666666666667 0 81.66666666666667 0 35Z" stroke-dasharray="3,4" stroke="#323232" stroke-width="2" fill-opacity="1" fill="#e6ffcc"></path><g id="SvgjsG1123"><text id="SvgjsText1124" font-family="微软雅黑" text-anchor="middle" font-size="13px" width="40" fill="#323232" font-weight="400" align="middle" anchor="middle" family="微软雅黑" size="13px" weight="400" font-style="" y="9.05" transform="rotate(0)"><tspan id="SvgjsTspan1125" dy="16" x="35"><tspan id="SvgjsTspan1126" style="text-decoration:;">ms-</tspan></tspan><tspan id="SvgjsTspan1127" dy="16" x="35"><tspan id="SvgjsTspan1128" style="text-decoration:;">grpc</tspan></tspan><tspan id="SvgjsTspan1129" dy="16" x="35"><tspan id="SvgjsTspan1130" style="text-decoration:;">未实现</tspan></tspan></text></g></g><g id="SvgjsG1131" transform="translate(428.00044226605866,291.9999999999998)"><path id="SvgjsPath1132" d="M 0 35C 0 -11.666666666666666 72.13839673914856 -11.666666666666666 72.13839673914856 35C 72.13839673914856 81.66666666666667 0 81.66666666666667 0 35Z" stroke="#323232" stroke-width="2" fill-opacity="1" fill="#e6ffcc"></path><g id="SvgjsG1133"><text id="SvgjsText1134" font-family="微软雅黑" text-anchor="middle" font-size="13px" width="42" fill="#323232" font-weight="400" align="middle" anchor="middle" family="微软雅黑" size="13px" weight="400" font-style="" y="25.05" transform="rotate(0)"><tspan id="SvgjsTspan1135" dy="16" x="36.5"><tspan id="SvgjsTspan1136" style="text-decoration:;">jm-net</tspan></tspan></text></g></g><g id="SvgjsG1137"><path id="SvgjsPath1138" d="M464.06964063563294 248.22944858768062C 464.06964063563294 265.7376691526083 464.0696406356328 274.4917794350721 464.0696406356328 291.9999999999998" stroke="#323232" stroke-width="2" fill="none" marker-end="url(#SvgjsMarker1139)"></path></g><g id="SvgjsG1141" transform="translate(25.000442266058656,292.2294485876805)"><path id="SvgjsPath1142" d="M 0 34.77055141231938C 0 -11.59018380410646 68 -11.59018380410646 68 34.77055141231938C 68 81.13128662874522 0 81.13128662874522 0 34.77055141231938Z" stroke="#323232" stroke-width="2" fill-opacity="1" fill="#e6ffcc"></path><g id="SvgjsG1143"><text id="SvgjsText1144" font-family="微软雅黑" text-anchor="middle" font-size="13px" width="34" fill="#323232" font-weight="400" align="middle" anchor="middle" family="微软雅黑" size="13px" weight="400" font-style="" y="24.82055141231938" transform="rotate(0)"><tspan id="SvgjsTspan1145" dy="16" x="34"><tspan id="SvgjsTspan1146" style="text-decoration:;">route</tspan></tspan></text></g></g><g id="SvgjsG1147"><path id="SvgjsPath1148" d="M59.000442266058656 247.77055141231938C 60.5503815480828 265.4864384719597 60.55038154808281 274.5135615280402 59.000442266058656 292.2294485876805" stroke="#323232" stroke-width="2" fill="none" marker-end="url(#SvgjsMarker1149)"></path></g><g id="SvgjsG1151"><path id="SvgjsPath1152" d="M220.93124389648438 60C 141.03688916894586 66.98985031837844 65.9902925844371 98.33509386014214 59.000442266058656 178.22944858768062" stroke="#323232" stroke-width="2" fill="none" marker-end="url(#SvgjsMarker1153)"></path></g><g id="SvgjsG1155"><path id="SvgjsPath1156" d="M255.93124389648438 95C 260.442086632444 146.55916840154964 161.37288826286974 126.6702801861311 156.8620455269101 178.22944858768062" stroke="#323232" stroke-width="2" fill="none" marker-end="url(#SvgjsMarker1157)"></path></g><g id="SvgjsG1159"><path id="SvgjsPath1160" d="M255.93124389648438 95C 258.83281366053933 128.1650941632588 258.83281366053933 145.06435442442182 255.93124389648438 178.22944858768062" stroke="#323232" stroke-width="2" fill="none" marker-end="url(#SvgjsMarker1161)"></path></g><g id="SvgjsG1163"><path id="SvgjsPath1164" d="M255.93124389648438 95C 260.6904294645766 149.39773996184113 368.89802457329944 123.8317086258395 364.1388390052072 178.22944858768062" stroke="#323232" stroke-width="2" fill="none" marker-end="url(#SvgjsMarker1165)"></path></g><g id="SvgjsG1167"><path id="SvgjsPath1168" d="M290.9312438964844 60C 374.474017150195 67.30904557921644 471.3786862148494 94.68667533397002 464.06964063563294 178.22944858768062" stroke="#323232" stroke-width="2" fill="none" marker-end="url(#SvgjsMarker1169)"></path></g></svg>